<?xml version="1.0" encoding="UTF-8"?><svg xmlns="http://www.w3.org/2000/svg" xmlns:xlink="http://www.w3.org/1999/xlink" height="877.1" preserveAspectRatio="xMidYMid meet" version="1.0" viewBox="72.9 85.7 877.1 877.1" width="877.1" zoomAndPan="magnify"><g><g id="change1_1"><path d="M 950.039062 524.269531 C 950.039062 636.46875 907.9375 738.796875 838.605469 816.351562 C 758.3125 906.257812 641.511719 962.832031 511.476562 962.832031 C 381.441406 962.832031 264.601562 906.257812 184.34375 816.351562 C 115.015625 738.796875 72.914062 636.46875 72.914062 524.269531 C 72.914062 282.070312 269.242188 85.707031 511.476562 85.707031 C 753.671875 85.707031 950.039062 282.070312 950.039062 524.269531" fill="#b3b3b3"/></g><g id="change2_1"><path d="M 511.476562 605.054688 C 590.960938 605.054688 663.359375 515.125 663.359375 416.378906 C 663.359375 323.082031 645.316406 230.824219 511.476562 230.824219 C 377.621094 230.824219 359.570312 323.082031 359.570312 416.378906 C 359.570312 515.125 431.976562 605.054688 511.476562 605.054688" fill="#f2f2f2"/></g><g id="change2_2"><path d="M 838.605469 816.351562 C 758.3125 906.257812 641.511719 962.832031 511.476562 962.832031 C 381.441406 962.832031 264.601562 906.257812 184.34375 816.351562 C 182.957031 762.1875 219.027344 636.6875 403.003906 598.058594 C 434.472656 630.179688 473.210938 648.34375 511.476562 648.34375 C 549.738281 648.34375 588.445312 630.179688 619.910156 598.058594 C 803.925781 636.6875 839.960938 762.1875 838.605469 816.351562" fill="#f2f2f2"/></g></g></svg>